<mxfile host="app.diagrams.net" modified="2022-01-08T02:14:39.329Z" agent="5.0 (Windows NT 6.1; Win64; x64) AppleWebKit/537.36 (KHTML, like Gecko) Chrome/96.0.4664.110 Safari/537.36" etag="q1oTKuv0knw8_J188hKU" version="16.2.4" type="github">
  <diagram id="JE_zyr2YQzzmll6OS-Pr" name="第 1 页">
    <mxGraphModel dx="1422" dy="762" grid="1" gridSize="10" guides="1" tooltips="1" connect="1" arrows="1" fold="1" page="1" pageScale="1" pageWidth="827" pageHeight="1169" math="0" shadow="0">
      <root>
        <mxCell id="0" />
        <mxCell id="1" parent="0" />
        <mxCell id="PAqt92I0aHDr9GZ66KKl-3" value="JME" style="rounded=1;whiteSpace=wrap;html=1;" vertex="1" parent="1">
          <mxGeometry x="170" y="560" width="330" height="60" as="geometry" />
        </mxCell>
        <mxCell id="PAqt92I0aHDr9GZ66KKl-7" value="" style="rounded=1;whiteSpace=wrap;html=1;" vertex="1" parent="1">
          <mxGeometry x="170" y="450" width="330" height="100" as="geometry" />
        </mxCell>
        <mxCell id="PAqt92I0aHDr9GZ66KKl-8" value="E" style="rounded=0;whiteSpace=wrap;html=1;" vertex="1" parent="1">
          <mxGeometry x="300" y="460" width="55" height="40" as="geometry" />
        </mxCell>
        <mxCell id="PAqt92I0aHDr9GZ66KKl-9" value="C" style="rounded=0;whiteSpace=wrap;html=1;" vertex="1" parent="1">
          <mxGeometry x="245" y="500" width="55" height="40" as="geometry" />
        </mxCell>
        <mxCell id="PAqt92I0aHDr9GZ66KKl-10" value="S" style="rounded=0;whiteSpace=wrap;html=1;" vertex="1" parent="1">
          <mxGeometry x="355" y="500" width="55" height="40" as="geometry" />
        </mxCell>
        <mxCell id="PAqt92I0aHDr9GZ66KKl-11" value="Prefab" style="rounded=1;whiteSpace=wrap;html=1;" vertex="1" parent="1">
          <mxGeometry x="414" y="340" width="120" height="60" as="geometry" />
        </mxCell>
        <mxCell id="PAqt92I0aHDr9GZ66KKl-12" value="Script" style="rounded=1;whiteSpace=wrap;html=1;" vertex="1" parent="1">
          <mxGeometry x="414" y="240" width="120" height="60" as="geometry" />
        </mxCell>
      </root>
    </mxGraphModel>
  </diagram>
</mxfile>
